<?xml version="1.0" encoding="iso-8859-1"?>
<!-- Generator: Adobe Illustrator 21.0.2, SVG Export Plug-In . SVG Version: 6.00 Build 0)  -->
<svg xmlns="http://www.w3.org/2000/svg" xmlns:xlink="http://www.w3.org/1999/xlink" version="1.1" id="Layer_1" x="0px" y="0px" viewBox="0 0 40 40" style="enable-background:new 0 0 40 40;" xml:space="preserve">
<g>
	<path style="fill:#B6DCFE;" d="M7.269,38.5c3.287-3.212,14.021-14.996,14.229-32h2.001c-0.105,17.84-5.846,30.081-6.804,32H7.269z"/>
	<g>
		<path style="fill:#4788C7;" d="M22.994,7c-0.2,16.745-5.375,28.44-6.612,31H8.499c4.015-4.114,13.118-15.156,13.489-31H22.994     M24,6h-3C21,26.271,6,39,6,39h11C17,39,24,26,24,6L24,6z"/>
	</g>
</g>
<g>
	<path style="fill:#DFF0FE;" d="M10.937,21.803c-1.483-3.097-2.204-7.301-0.178-10.793c1.919-3.308,5.933-5.184,11.658-5.471   C19.993,7.478,14.753,12.47,10.937,21.803z"/>
	<g>
		<path style="fill:#4788C7;" d="M20.924,6.156c-2.613,2.354-6.738,6.912-9.992,14.376c-1.095-2.829-1.449-6.326,0.261-9.271    C12.85,8.403,16.186,6.664,20.924,6.156 M24,5C8,5,7,16,11,23C16,10,24,5,24,5L24,5z"/>
	</g>
</g>
<g>
	<path style="fill:#DFF0FE;" d="M1.584,14.544C2.138,9.656,5.521,1.5,14.02,1.5c3.825,0,7.023,1.583,8.235,4.005   C14.645,5.603,8.405,7.282,1.584,14.544z"/>
	<g>
		<path style="fill:#4788C7;" d="M14.02,2c3.242,0,6.001,1.173,7.358,3.025C14.597,5.238,8.588,6.923,2.329,13.07    C3.322,8.357,6.689,2,14.02,2 M14.02,1C4.193,1,1,11.398,1,15.929C8,8,14.38,6,23,6C22,3,18.366,1,14.02,1L14.02,1z"/>
	</g>
</g>
<g>
	<path style="fill:#DFF0FE;" d="M31.209,21.559c-0.773-3.372-3.203-12.068-8.409-16.011c4.961,0.275,8.211,1.731,9.674,4.337   C34.631,13.727,32.395,19.183,31.209,21.559z"/>
	<g>
		<path style="fill:#4788C7;" d="M24.292,6.174c3.923,0.451,6.523,1.775,7.746,3.954c1.728,3.075,0.448,7.307-0.683,9.934    C30.393,16.403,28.243,9.99,24.292,6.174 M21,5c7.464,3.817,10,18,10,18S42,5,21,5L21,5z"/>
	</g>
</g>
<g>
	<path style="fill:#DFF0FE;" d="M38.385,12.374c-4.541-5.531-9.88-6.807-16.81-6.872C22.083,3.757,25.079,1.5,28.695,1.5   C34.832,1.5,37.789,7.886,38.385,12.374z"/>
	<g>
		<path style="fill:#4788C7;" d="M28.695,2c5.069,0,7.853,4.645,8.862,8.69c-4.213-4.348-9.096-5.535-15.205-5.676    C23.223,3.649,25.633,2,28.695,2 M28.695,1C24.348,1,21,3.965,21,6c7,0,13,1,18,8C39,9.469,36,1,28.695,1L28.695,1z"/>
	</g>
</g>
</svg>
