<?xml version="1.0" standalone="no"?>
<!DOCTYPE svg PUBLIC "-//W3C//DTD SVG 20010904//EN"
 "http://www.w3.org/TR/2001/REC-SVG-20010904/DTD/svg10.dtd">
<svg version="1.0" xmlns="http://www.w3.org/2000/svg"
 width="824.000000pt" height="1280.000000pt" viewBox="0 0 824.000000 1280.000000"
 preserveAspectRatio="xMidYMid meet">
<metadata>
Created by potrace 1.15, written by Peter Selinger 2001-2017
</metadata>
<g transform="translate(0.000000,1280.000000) scale(0.100000,-0.100000)"
fill="#000000" stroke="none">
<path d="M4091 12781 c-42 -42 -84 -238 -116 -546 -9 -83 -15 -169 -13 -190 3
-35 6 -40 27 -40 21 0 28 11 55 85 l31 85 3 -180 c3 -150 0 -206 -20 -334 -17
-112 -27 -155 -38 -159 -8 -3 -26 -13 -40 -23 l-26 -17 -13 121 c-45 431 -285
937 -493 1041 -78 39 -134 32 -191 -22 -64 -60 -120 -231 -133 -402 -4 -49
-11 -90 -15 -90 -5 0 -26 15 -46 33 -116 103 -305 231 -453 307 -187 96 -348
140 -509 140 -114 0 -189 -17 -286 -65 -239 -118 -391 -411 -447 -860 -13
-108 -17 -622 -5 -667 5 -19 14 -28 28 -28 17 0 11 -11 -36 -62 -187 -207
-329 -499 -399 -823 -51 -238 -60 -338 -60 -655 -1 -162 3 -307 7 -322 8 -30
37 -38 54 -15 6 6 16 48 23 92 41 269 130 551 241 772 311 614 840 946 1649
1033 105 12 598 26 590 17 -3 -3 -40 -17 -83 -31 -459 -154 -874 -619 -1062
-1191 -91 -278 -147 -713 -93 -723 19 -4 37 22 128 188 230 418 477 762 755
1049 105 108 285 270 285 256 0 -4 -24 -35 -54 -68 -257 -296 -429 -653 -480
-999 -16 -104 -13 -118 19 -118 17 0 32 14 56 53 21 34 34 47 37 37 8 -26 34
-50 54 -50 15 0 18 -8 18 -60 0 -57 1 -60 25 -60 21 0 30 11 61 79 30 66 39
79 60 79 28 0 54 18 54 38 0 8 14 26 30 41 35 31 39 64 9 94 -13 13 -18 27
-14 40 9 28 22 23 29 -11 11 -60 97 -64 112 -5 9 34 0 53 -36 73 -16 9 -30 22
-30 29 0 24 19 23 44 -2 14 -14 32 -25 41 -25 25 0 68 48 62 70 -3 11 3 26 15
37 15 14 19 26 15 55 -4 32 -2 37 16 40 12 2 28 15 37 31 14 25 13 30 -2 57
-9 17 -13 30 -8 30 5 0 13 -6 17 -14 4 -7 19 -19 32 -26 20 -10 27 -9 50 7 14
11 27 32 29 46 4 35 -32 71 -64 64 -14 -2 -27 0 -30 4 -3 5 6 9 20 9 26 0 66
31 66 50 0 6 9 10 20 10 30 0 55 45 44 78 -7 21 -5 31 9 45 11 11 17 29 15 45
-2 20 4 31 25 44 15 10 27 27 27 38 0 17 4 19 25 14 16 -4 35 0 51 11 l26 17
-6 -114 c-3 -62 -8 -205 -11 -318 -12 -448 -43 -1373 -95 -2835 -6 -159 -19
-560 -30 -890 -68 -2044 -78 -2311 -100 -2925 -36 -981 -42 -1095 -55 -1102
-41 -24 -213 -153 -285 -212 -211 -176 -386 -388 -360 -436 17 -32 112 -110
200 -164 230 -142 577 -285 853 -351 l98 -23 107 25 c229 52 505 159 697 270
168 98 315 226 315 276 0 38 -97 173 -204 284 -111 116 -235 214 -338 268 -58
31 -68 40 -72 68 -20 132 -111 2478 -146 3767 -12 436 -27 963 -65 2255 -14
473 -28 998 -33 1166 l-7 307 30 12 c17 8 34 15 39 18 5 2 -2 -9 -14 -26 -28
-37 -21 -75 16 -95 23 -12 24 -15 10 -26 -20 -17 -21 -51 -2 -76 10 -14 11
-25 4 -39 -23 -43 59 -97 95 -62 19 20 46 11 40 -13 -3 -13 -11 -17 -28 -13
-31 6 -67 -31 -63 -65 2 -14 15 -35 29 -45 22 -16 29 -17 52 -7 14 6 30 22 34
34 6 17 13 21 28 15 18 -7 17 -10 -19 -43 -42 -39 -50 -75 -22 -106 9 -9 16
-24 16 -33 0 -28 41 -70 64 -66 19 4 21 1 18 -28 -3 -26 1 -36 22 -50 23 -14
33 -15 64 -6 81 24 77 25 116 -23 64 -78 81 -61 98 98 21 202 -16 494 -91 716
-44 129 -44 129 -21 89 22 -41 40 -47 60 -23 10 12 11 56 7 183 -6 176 -22
262 -71 382 -27 68 -29 68 80 -17 116 -90 308 -276 405 -394 147 -177 322
-441 405 -611 28 -59 56 -80 78 -58 17 17 12 211 -8 300 -92 413 -367 870
-666 1103 -36 28 -69 55 -75 60 -16 15 375 0 494 -18 378 -59 662 -201 940
-470 223 -216 409 -483 592 -847 52 -103 63 -119 82 -116 21 3 22 8 20 78 -5
203 -73 519 -160 743 -172 447 -460 780 -838 970 -115 57 -240 101 -368 129
-88 19 -132 22 -312 22 -194 0 -219 -2 -329 -28 -219 -51 -441 -143 -615 -256
-43 -28 -73 -40 -99 -40 -20 0 -54 -4 -74 -9 l-37 -9 -3 75 -3 76 75 62 c374
309 775 518 1115 581 136 26 386 26 505 1 269 -57 504 -187 733 -407 293 -281
551 -694 765 -1225 79 -197 77 -195 102 -195 28 0 30 22 14 117 -120 708 -325
1237 -625 1614 -145 182 -341 345 -532 440 -356 179 -794 186 -1210 20 -81
-32 -97 -33 -97 -2 0 48 -47 197 -90 287 -56 115 -127 196 -213 241 -47 25
-62 28 -152 28 -93 0 -105 -2 -165 -32 -36 -18 -91 -53 -122 -78 -65 -53 -172
-190 -221 -282 -17 -35 -35 -63 -39 -63 -5 0 -8 34 -8 74 0 96 -26 292 -46
354 -27 81 -63 103 -103 63z m822 -479 c69 -34 252 -199 230 -208 -27 -12
-140 -84 -225 -144 -170 -120 -402 -363 -513 -538 -22 -34 -42 -62 -45 -62 -3
0 -14 16 -25 36 -18 33 -72 88 -109 109 -16 9 -13 20 29 135 160 427 306 654
453 701 52 16 136 5 205 -29z m-1427 -228 c106 -50 229 -259 338 -572 39 -112
44 -136 34 -157 -6 -14 -14 -25 -17 -25 -4 0 -33 35 -66 78 -91 118 -279 334
-403 462 -119 123 -118 122 -65 172 61 58 117 71 179 42z m-1084 -128 c323
-69 714 -274 1261 -664 132 -94 163 -122 139 -122 -4 0 -62 24 -129 54 -160
72 -344 130 -523 166 -193 38 -307 50 -497 50 -470 0 -855 -129 -1160 -387
-55 -46 -63 -51 -63 -32 0 44 53 277 86 378 103 315 286 512 524 566 81 18
254 14 362 -9z m1248 -1651 c-7 -9 -15 -13 -18 -10 -3 2 1 11 8 20 7 9 15 13
18 10 3 -2 -1 -11 -8 -20z m-85 -135 c3 -5 1 -10 -4 -10 -6 0 -11 5 -11 10 0
6 2 10 4 10 3 0 8 -4 11 -10z m-62 -107 c7 -6 -21 -32 -36 -33 -4 0 -3 9 3 20
11 21 22 25 33 13z m901 -112 c17 -19 17 -19 -3 -14 -12 3 -21 12 -21 19 0 18
4 18 24 -5z m-934 -1 c0 -5 -4 -10 -10 -10 -5 0 -10 5 -10 10 0 6 5 10 10 10
6 0 10 -4 10 -10z m-54 -32 c-9 -12 -16 -32 -16 -45 0 -12 -4 -25 -10 -28 -5
-3 -10 0 -10 8 0 24 30 87 41 87 5 0 3 -10 -5 -22z m-366 -359 c0 -14 -7 -19
-26 -19 -25 0 -25 6 -1 37 12 17 27 7 27 -18z m1672 -261 c-7 -7 -12 -8 -12
-2 0 14 12 26 19 19 2 -3 -1 -11 -7 -17z m71 -95 c-7 -2 -21 -2 -30 0 -10 3
-4 5 12 5 17 0 24 -2 18 -5z"/>
</g>
</svg>
